# xmcd
#
# Track frame offsets:
#	150
#	11845
#	26600
#	45312
#	57787
#	71667
#	80840
#	94325
#	118245
#	129010
#
# Disc length: 1954 seconds
#
# Revision: 6
# Processed by: cddbd v1.5.2PL0 Copyright (c) Steve Scherf et al.
# Submitted via: EasyCDDAExtractor 15.3.0.1
#
DISCID=8107a00a
DTITLE=Yuri - Que Tu Fe Nunca Muera
DYEAR=2000
DGENRE=Latin
TTITLE0=Su Venida
TTITLE1=Que Tu Fe Nunca Muera
TTITLE2=Maria Magdalena
TTITLE3=Sendero De Amor
TTITLE4=Saciame De Tu Amor
TTITLE5=Canciones De Salvacion
TTITLE6=Yo Buscaba
TTITLE7=Volver A Empezar
TTITLE8=Machacalo
TTITLE9=Puedo Ver
EXTD=YEAR: 2000
EXTT0=
EXTT1=
EXTT2=
EXTT3=
EXTT4=
EXTT5=
EXTT6=
EXTT7=
EXTT8=
EXTT9=
PLAYORDER=
